Coordinates
version=1
nRows=14
nColumns=40
inDegrees=yes

Units are S.I. units (second, meters, Newtons, ...)
Angles are in degrees.

endheader
time	pelvis_tilt	pelvis_list	pelvis_rotation	pelvis_tx	pelvis_ty	pelvis_tz	hip_flexion_r	hip_adduction_r	hip_rotation_r	knee_angle_r	knee_angle_r_beta	ankle_angle_r	subtalar_angle_r	mtp_angle_r	hip_flexion_l	hip_adduction_l	hip_rotation_l	knee_angle_l	knee_angle_l_beta	ankle_angle_l	subtalar_angle_l	mtp_angle_l	lumbar_extension	lumbar_bending	lumbar_rotation	arm_flex_r	arm_add_r	arm_rot_r	elbow_flex_r	pro_sup_r	wrist_flex_r	wrist_dev_r	arm_flex_l	arm_add_l	arm_rot_l	elbow_flex_l	pro_sup_l	wrist_flex_l	wrist_dev_l
      6.32314286	     -4.43320663	     -4.39967504	      2.41221229	      0.82691958	      0.92382188	      0.48902438	     -1.46741205	      4.52112741	    -19.05209299	     10.05702191	     10.05702191	     17.69074187	     12.02456570	     -1.98967884	     29.85612063	     -6.14973688	     -6.34254988	     18.81462368	     18.81462368	      4.20424188	     -8.63882997	      7.88205932	     -7.81064147	      9.34821074	      5.37513915	     29.54543131	    -17.43327318	     -2.93997978	    109.45862197	     44.02920089	      0.00000000	      0.00000000	     -8.59511055	     -8.99458575	     -2.94064098	     26.02154236	     46.77239013	      0.00000000	      0.00000000
      6.33628571	     -4.53486877	     -4.39358801	      2.16624098	      0.82794598	      0.92282493	      0.48716309	     -1.88496192	      4.31224465	    -18.91202412	     10.28187382	     10.28187382	     18.09502296	     12.27051238	     -1.67847619	     29.48969701	     -5.81150354	     -5.70217378	     19.46817885	     19.46817885	      3.80232834	     -9.74925957	      7.97734923	     -7.54296895	      9.33353549	      5.54085359	     28.53966939	    -18.06132914	     -2.98406830	    109.28595277	     44.05052870	      0.00000000	      0.00000000	     -8.91751214	     -8.92961339	     -3.06160968	     26.75443521	     46.76749934	      0.00000000	      0.00000000
      6.34942857	     -4.52932672	     -4.28446860	      1.92095454	      0.82914886	      0.92217366	      0.48521061	     -2.43940813	      3.99731750	    -18.67585078	     10.46863968	     10.46863968	     18.35256551	     12.35142635	     -1.65958656	     28.98429635	     -5.49180179	     -5.52999855	     20.05935166	     20.05935166	      3.68293067	    -10.09071788	      7.92676708	     -7.42656530	      9.20904476	      5.33665186	     27.59373661	    -18.17648836	     -2.96544516	    108.99573709	     44.05909054	      0.00000000	      0.00000000	     -9.13724818	     -8.81581169	     -3.07923869	     26.84008786	     46.76209127	      0.00000000	      0.00000000
      6.36257143	     -4.59526856	     -4.19281134	      1.67593512	      0.83035297	      0.92161262	      0.48315791	     -2.85204023	      3.66124980	    -18.49376010	     10.77291097	     10.77291097	     18.62388537	     12.45178690	     -1.55225043	     28.61645471	     -5.16893161	     -5.14242305	     20.65859312	     20.65859312	      3.59439656	    -10.78710470	      7.83670305	     -7.21006684	      9.07490185	      5.34195071	     26.31232211	    -18.50978800	     -3.05001218	    108.25111430	     44.08654121	      0.00000000	      0.00000000	     -9.12497202	     -8.79186444	     -3.14654379	     27.18234292	     46.76577431	      0.00000000	      0.00000000
      6.37571429	     -4.75494632	     -4.03559339	      1.43771876	      0.83139767	      0.92118468	      0.48079863	     -2.98640411	      3.15355636	    -18.38378754	     11.42268233	     11.42268233	     19.03777251	     12.60136587	     -1.15253325	     28.30747344	     -4.70394657	     -4.51911178	     21.05842463	     21.05842463	      3.38847028	    -12.03052240	      7.69477280	     -6.91861353	      8.89497372	      5.56758921	     24.83597082	    -19.06335217	     -3.64687806	    106.86729735	     44.16051311	      0.00000000	      0.00000000	     -8.99618478	     -8.66494427	     -3.26437755	     27.89745222	     46.76758006	      0.00000000	      0.00000000
      6.38885714	     -4.83524772	     -3.87518004	      1.20765620	      0.83252646	      0.92110012	      0.47840652	     -3.18504483	      2.63770412	    -18.21406194	     12.08860307	     12.08860307	     19.28649278	     12.65266525	     -0.94607445	     27.98511771	     -4.34250698	     -4.19178045	     21.56303393	     21.56303393	      3.51700062	    -12.78758702	      7.43151263	     -6.75581476	      8.70151211	      5.54652060	     23.36302278	    -19.26037143	     -3.98642223	    105.56711285	     44.21767521	      0.00000000	      0.00000000	     -8.74831456	     -8.57822004	     -3.31088803	     28.29005669	     46.76602384	      0.00000000	      0.00000000
      6.40200000	     -4.90189725	     -3.69355670	      0.99223152	      0.83357650	      0.92126304	      0.47583289	     -3.22897925	      2.02467889	    -18.06945694	     13.06627463	     13.06627463	     19.53971353	     12.64546178	     -0.79346233	     27.63691390	     -3.96656196	     -3.89533309	     22.00069999	     22.00069999	      3.76614376	    -13.58447692	      7.16347714	     -6.61193919	      8.49489914	      5.52412719	     21.85260752	    -19.42987533	     -4.55358434	    103.82231784	     44.29864409	      0.00000000	      0.00000000	     -8.38816511	     -8.43610424	     -3.32767315	     28.68031416	     46.75766747	      0.00000000	      0.00000000
      6.41514286	     -4.95924947	     -3.50801599	      0.79348353	      0.83456373	      0.92163569	      0.47314331	     -3.13458544	      1.34628245	    -17.89759377	     14.29899739	     14.29899739	     19.68308085	     12.56387629	     -0.84537783	     27.28840015	     -3.60939702	     -3.69308052	     22.42914001	     22.42914001	      4.17969389	    -14.24507996	      6.92805541	     -6.51066665	      8.30712694	      5.50944110	     20.29698567	    -19.52864580	     -5.09178422	    101.85334761	     44.38442241	      0.00000000	      0.00000000	     -7.89808571	     -8.32578899	     -3.31535525	     29.05316422	     46.74722330	      0.00000000	      0.00000000
      6.42828571	     -4.97408617	     -3.32752397	      0.57881417	      0.83553634	      0.92220765	      0.47045180	     -2.92756247	      0.61842489	    -17.66103365	     15.80900846	     15.80900846	     19.70169203	     12.38741775	     -1.16550136	     26.87828602	     -3.29904645	     -3.63137294	     22.83693634	     22.83693634	      4.74368448	    -14.75353953	      6.71798908	     -6.46535676	      8.08095758	      5.49072655	     18.70189889	    -19.62380409	     -5.50399756	     99.83313662	     44.46360776	      0.00000000	      0.00000000	     -7.27653619	     -8.25795786	     -3.29240668	     29.45996241	     46.74145828	      0.00000000	      0.00000000
      6.44142857	     -5.02576547	     -3.18950375	      0.40461837	      0.83638718	      0.92281125	      0.46764745	     -2.42523792	     -0.14787078	    -17.43789970	     17.77298972	     17.77298972	     19.58548867	     12.06294703	     -1.89558544	     26.44174518	     -3.00959556	     -3.58741089	     23.09361269	     23.09361269	      5.38667625	    -15.18053489	      6.63089994	     -6.31913594	      7.93330068	      5.41146285	     17.18530307	    -19.57920574	     -6.23057805	     97.29473251	     44.57224346	      0.00000000	      0.00000000	     -6.63086358	     -8.12209441	     -3.20214553	     29.94948222	     46.72049694	      0.00000000	      0.00000000
      6.45457143	     -5.01616762	     -3.02538257	      0.20424367	      0.83719574	      0.92356578	      0.46481686	     -1.80435575	     -0.99848377	    -17.05599743	     20.03266248	     20.03266248	     19.19141447	     11.58273725	     -2.95994914	     25.93157755	     -2.72166525	     -3.64945480	     23.36089532	     23.36089532	      6.08037400	    -15.41854828	      6.52846485	     -6.34951994	      7.74337054	      5.35432071	     15.63808766	    -19.46694430	     -6.77174507	     94.83263473	     44.67055526	      0.00000000	      0.00000000	     -5.92427498	     -8.11989073	     -3.10720396	     30.53932007	     46.70142728	      0.00000000	      0.00000000
      6.46771429	     -4.94962964	     -2.85632894	      0.00257539	      0.83799556	      0.92433094	      0.46203844	     -0.98394828	     -1.91338394	    -16.58649428	     22.75466702	     22.75466702	     18.64462510	     10.88174709	     -4.19129850	     25.31065239	     -2.44434035	     -3.84045801	     23.55096203	     23.55096203	      6.81011278	    -15.52908673	      6.34676691	     -6.41877759	      7.54207490	      5.33526781	     14.06447132	    -19.42138263	     -7.15228217	     92.51478669	     44.75573038	      0.00000000	      0.00000000	     -5.14358053	     -8.13227534	     -3.03303418	     31.21745267	     46.69183993	      0.00000000	      0.00000000
      6.48085714	     -4.95162983	     -2.74720800	     -0.17799026	      0.83861135	      0.92493554	      0.45928823	      0.18693171	     -2.79249322	    -15.99024973	     25.89256633	     25.89256633	     17.74460490	      9.84535036	     -5.85331144	     24.73219255	     -2.21527093	     -4.02353828	     23.65194651	     23.65194651	      7.51069789	    -15.51600496	      6.17220225	     -6.39185853	      7.41208549	      5.29214095	     12.50536638	    -19.29965965	     -7.68286772	     89.86876765	     44.85607558	      0.00000000	      0.00000000	     -4.37658561	     -8.16097889	     -2.92002244	     32.07337147	     46.67613198	      0.00000000	      0.00000000
      6.49400000	     -4.90107234	     -2.74809883	     -0.28033125	      0.83920717	      0.92549620	      0.45671908	      1.19249428	     -3.37371826	    -15.20774977	     28.43065310	     28.43065310	     14.01431780	      7.40532628	    -14.73112617	     24.13936799	     -2.09352572	     -4.13237201	     23.83484631	     23.83484631	      8.40199865	    -15.38077796	      6.39204280	     -6.34633159	      7.34922544	      4.71946544	     11.77673390	    -18.56174668	     -8.38998082	     85.63539588	     45.04255190	      0.00000000	      0.00000000	     -4.47137754	     -8.64357423	     -1.37078772	     34.76113287	     46.38267777	      0.00000000	      0.00000000
